<?xml version="1.0" encoding="UTF-8" standalone="no"?>
<!-- Created with Inkscape (http://www.inkscape.org/) -->

<svg
   version="1.1"
   id="svg2"
   width="1600"
   height="1600"
   viewBox="0 0 1600 1600"
   sodipodi:docname="v920-kul-52.eps"
   xmlns:inkscape="http://www.inkscape.org/namespaces/inkscape"
   xmlns:sodipodi="http://sodipodi.sourceforge.net/DTD/sodipodi-0.dtd"
   xmlns="http://www.w3.org/2000/svg"
   xmlns:svg="http://www.w3.org/2000/svg">
  <defs
     id="defs6">
    <clipPath
       clipPathUnits="userSpaceOnUse"
       id="clipPath20">
      <path
         d="m 2713.5,5372.78 c 54,-58.63 79.13,-133.6 76.09,-207.41 -3.03,-73.82 -34.22,-146.47 -92.85,-200.47 -117.26,-108.01 -299.87,-100.51 -407.88,16.75 -54.01,58.63 -79.13,133.6 -76.1,207.41 3.03,73.82 34.22,146.47 92.86,200.48 117.25,108 299.87,100.5 407.88,-16.76 z"
         id="path18" />
    </clipPath>
    <linearGradient
       x1="0"
       y1="0"
       x2="1"
       y2="0"
       gradientUnits="userSpaceOnUse"
       gradientTransform="matrix(577.324,0,0,-577.324,2212.51,5177.22)"
       spreadMethod="pad"
       id="linearGradient26">
      <stop
         style="stop-opacity:1;stop-color:#5ec9bd"
         offset="0"
         id="stop22" />
      <stop
         style="stop-opacity:1;stop-color:#3d8598"
         offset="1"
         id="stop24" />
    </linearGradient>
    <clipPath
       clipPathUnits="userSpaceOnUse"
       id="clipPath36">
      <path
         d="m 6761.13,7195.87 c -0.7,-7.46 -1.68,-14.89 -1.98,-22.37 -2.68,-64.95 9.87,-130.42 37.34,-190.91 l -893.18,-822.67 -893.19,-822.69 c -64.72,36.06 -137.15,53.6 -209.64,52.72 l -962.76,2808.08 c 40.76,21.8 79.28,48.35 114.17,80.49 34.91,32.15 64.54,68.4 89.62,107.24 z"
         id="path34" />
    </clipPath>
    <linearGradient
       x1="0"
       y1="0"
       x2="1"
       y2="0"
       gradientUnits="userSpaceOnUse"
       gradientTransform="matrix(2958.77,0,0,-2958.77,3837.72,6861.49)"
       spreadMethod="pad"
       id="linearGradient42">
      <stop
         style="stop-opacity:1;stop-color:#5ec9bd"
         offset="0"
         id="stop38" />
      <stop
         style="stop-opacity:1;stop-color:#3d8598"
         offset="1"
         id="stop40" />
    </linearGradient>
    <clipPath
       clipPathUnits="userSpaceOnUse"
       id="clipPath52">
      <path
         d="m 3023.26,5003.91 1373.92,-126.42 c 16.03,-70.41 49.82,-135.87 100.08,-190.43 52.86,-57.41 118.27,-96.23 188.13,-117.07 l 28.66,-1099.45 12.44,-477.42 c -40.03,-16.11 -78.16,-38.29 -113.17,-66.61 l -1719.2,1866.5 c 59.2,60.41 103.13,132.15 129.14,210.9 z"
         id="path50" />
    </clipPath>
    <linearGradient
       x1="0"
       y1="0"
       x2="1"
       y2="0"
       gradientUnits="userSpaceOnUse"
       gradientTransform="matrix(1832.37,0,0,-1832.37,2894.12,3965.21)"
       spreadMethod="pad"
       id="linearGradient58">
      <stop
         style="stop-opacity:1;stop-color:#5ec9bd"
         offset="0"
         id="stop54" />
      <stop
         style="stop-opacity:1;stop-color:#3d8598"
         offset="1"
         id="stop56" />
    </linearGradient>
    <clipPath
       clipPathUnits="userSpaceOnUse"
       id="clipPath68">
      <path
         d="M 4421.06,5137.97 3044.5,5264.63 c -16.83,105.94 -64.3,204.65 -138.63,285.35 -70.87,76.94 -160.24,130.44 -258.72,157.36 l 796.37,2442.71 c 36.63,-9.24 74.4,-15 113.03,-16.58 2.32,-0.1 4.62,-0.13 6.92,-0.13 6.61,0 13.17,0.29 19.77,0.33 l 969.59,-2827.99 c -10.7,-8.11 -21.16,-16.7 -31.23,-25.98 -43.84,-40.35 -77.55,-88.65 -100.54,-141.73"
         id="path66" />
    </clipPath>
    <linearGradient
       x1="0"
       y1="0"
       x2="1"
       y2="0"
       gradientUnits="userSpaceOnUse"
       gradientTransform="matrix(1905.68,0,0,-1905.68,2647.15,6644.01)"
       spreadMethod="pad"
       id="linearGradient74">
      <stop
         style="stop-opacity:1;stop-color:#33897c"
         offset="0"
         id="stop70" />
      <stop
         style="stop-opacity:1;stop-color:#254954"
         offset="1"
         id="stop72" />
    </linearGradient>
    <clipPath
       clipPathUnits="userSpaceOnUse"
       id="clipPath84">
      <path
         d="m 5222.25,4926.53 c 7.87,73.79 -3.55,149.3 -34.91,218.33 l 1786.4,1645.38 c 66.21,-36.88 140.5,-54.44 214.66,-52.65 L 8222.07,3837.02 c -38.48,-21.22 -74.95,-46.64 -108.1,-77.17 -33.14,-30.53 -61.45,-64.78 -85.76,-101.37 z"
         id="path82" />
    </clipPath>
    <linearGradient
       x1="0"
       y1="0"
       x2="1"
       y2="0"
       gradientUnits="userSpaceOnUse"
       gradientTransform="matrix(3034.73,0,0,-3034.73,5187.34,5224.36)"
       spreadMethod="pad"
       id="linearGradient90">
      <stop
         style="stop-opacity:1;stop-color:#5ec9bd"
         offset="0"
         id="stop86" />
      <stop
         style="stop-opacity:1;stop-color:#3d8598"
         offset="1"
         id="stop88" />
    </linearGradient>
    <clipPath
       clipPathUnits="userSpaceOnUse"
       id="clipPath100">
      <path
         d="m 6702.21,9046.72 c 81.78,-88.79 188.13,-146.43 304.82,-167.75 l 1.1,-47.25 29.86,-1280.21 c -51.95,-18.32 -101.11,-47.14 -144.12,-86.75 -10.08,-9.28 -19.49,-18.99 -28.45,-28.98 l -932.28,407.86 -1806.66,790.42 c 0.8,8.86 2.04,17.62 2.4,26.57 1.54,37.41 -0.75,74.37 -6.53,110.52 l 2440.76,564.06 c 16.37,-107.12 64.04,-206.99 139.1,-288.49 z"
         id="path98" />
    </clipPath>
    <linearGradient
       x1="0"
       y1="0"
       x2="1"
       y2="0"
       gradientUnits="userSpaceOnUse"
       gradientTransform="matrix(2915.64,0,0,-2915.64,4122.35,8385.49)"
       spreadMethod="pad"
       id="linearGradient106">
      <stop
         style="stop-opacity:1;stop-color:#5ec9bd"
         offset="0"
         id="stop102" />
      <stop
         style="stop-opacity:1;stop-color:#3d8598"
         offset="1"
         id="stop104" />
    </linearGradient>
    <clipPath
       clipPathUnits="userSpaceOnUse"
       id="clipPath116">
      <path
         d="m 9004.77,7064.46 -1415.93,173.27 c -14.41,73.36 -48.08,143.81 -102.34,202.68 -52.57,57.09 -117.57,95.8 -186.99,116.71 l -30.76,1318.98 -0.41,17.77 c 77.66,23.79 149.82,64.27 211.33,120.92 l 0.59,0.6 1646.43,-1787.52 -0.64,-0.53 C 9074.99,7180.3 9034.42,7125 9004.77,7064.46"
         id="path114" />
    </clipPath>
    <linearGradient
       x1="0"
       y1="0"
       x2="1"
       y2="0"
       gradientUnits="userSpaceOnUse"
       gradientTransform="matrix(1858.35,0,0,-1858.35,7268.34,8039.93)"
       spreadMethod="pad"
       id="linearGradient122">
      <stop
         style="stop-opacity:1;stop-color:#33897c"
         offset="0"
         id="stop118" />
      <stop
         style="stop-opacity:1;stop-color:#254954"
         offset="1"
         id="stop120" />
    </linearGradient>
    <clipPath
       clipPathUnits="userSpaceOnUse"
       id="clipPath132">
      <path
         d="m 8509.32,3904.9 c -11.3,0.46 -22.47,-0.04 -33.69,-0.26 L 7434.87,6825.09 c 9.29,7.21 18.49,14.58 27.29,22.69 41.2,37.95 72.86,82.4 95.26,130.27 l 1391.94,-170.34 c 3.44,-133.08 53.73,-259 144.76,-357.83 68.42,-74.28 154.12,-126.57 248.56,-154.37 L 8612.27,3890.79 c -33.48,7.77 -67.87,12.67 -102.95,14.11 z"
         id="path130" />
    </clipPath>
    <linearGradient
       x1="0"
       y1="0"
       x2="1"
       y2="0"
       gradientUnits="userSpaceOnUse"
       gradientTransform="matrix(1907.8,0,0,-1907.8,7434.88,5434.42)"
       spreadMethod="pad"
       id="linearGradient138">
      <stop
         style="stop-opacity:1;stop-color:#5ec9bd"
         offset="0"
         id="stop134" />
      <stop
         style="stop-opacity:1;stop-color:#3d8598"
         offset="1"
         id="stop136" />
    </linearGradient>
    <clipPath
       clipPathUnits="userSpaceOnUse"
       id="clipPath148">
      <path
         d="m 5325.44,2688.26 c -17.78,71.66 -53.18,138.18 -104.6,194 -64.54,70.06 -146.57,114.38 -233.29,133.08 l -40.67,1560.92 c 51.56,18.34 100.34,47.09 143.06,86.46 8.8,8.1 16.91,16.68 24.86,25.35 L 7940.01,3411.32 c -1.13,-11.17 -2.56,-22.27 -3.02,-33.59 -1.49,-36.31 0.59,-72.23 6,-107.37 l -2617.55,-582.1"
         id="path146" />
    </clipPath>
    <linearGradient
       x1="0"
       y1="0"
       x2="1"
       y2="0"
       gradientUnits="userSpaceOnUse"
       gradientTransform="matrix(2996.1,0,0,-2996.1,4946.88,3688.16)"
       spreadMethod="pad"
       id="linearGradient154">
      <stop
         style="stop-opacity:1;stop-color:#33897c"
         offset="0"
         id="stop150" />
      <stop
         style="stop-opacity:1;stop-color:#254954"
         offset="1"
         id="stop152" />
    </linearGradient>
    <clipPath
       clipPathUnits="userSpaceOnUse"
       id="clipPath164">
      <path
         d="m 3579.21,8394.55 c -77.86,0 -155.48,31.31 -212.39,93.1 -54.01,58.63 -79.13,133.6 -76.1,207.41 3.03,73.82 34.22,146.47 92.85,200.48 55.47,51.09 125.58,76.34 195.49,76.34 77.86,0 155.48,-31.31 212.39,-93.1 54.01,-58.63 79.13,-133.6 76.1,-207.41 -3.03,-73.81 -34.22,-146.47 -92.85,-200.48 -55.48,-51.09 -125.58,-76.34 -195.49,-76.34"
         id="path162" />
    </clipPath>
    <linearGradient
       x1="0"
       y1="0"
       x2="1"
       y2="0"
       gradientUnits="userSpaceOnUse"
       gradientTransform="matrix(577.324,0,0,-577.324,3290.47,8683.22)"
       spreadMethod="pad"
       id="linearGradient170">
      <stop
         style="stop-opacity:1;stop-color:#33897c"
         offset="0"
         id="stop166" />
      <stop
         style="stop-opacity:1;stop-color:#254954"
         offset="1"
         id="stop168" />
    </linearGradient>
    <clipPath
       clipPathUnits="userSpaceOnUse"
       id="clipPath180">
      <path
         d="m 7302.47,9207.16 c -117.26,-108 -299.87,-100.5 -407.88,16.76 -54,58.63 -79.13,133.6 -76.09,207.41 3.02,73.82 34.21,146.47 92.84,200.47 117.26,108.01 299.88,100.51 407.89,-16.75 54,-58.63 79.13,-133.6 76.09,-207.41 -3.03,-73.82 -34.22,-146.47 -92.85,-200.48 z"
         id="path178" />
    </clipPath>
    <linearGradient
       x1="0"
       y1="0"
       x2="1"
       y2="0"
       gradientUnits="userSpaceOnUse"
       gradientTransform="matrix(577.324,0,0,-577.324,6818.25,9419.48)"
       spreadMethod="pad"
       id="linearGradient186">
      <stop
         style="stop-opacity:1;stop-color:#5ec9bd"
         offset="0"
         id="stop182" />
      <stop
         style="stop-opacity:1;stop-color:#3d8598"
         offset="1"
         id="stop184" />
    </linearGradient>
    <clipPath
       clipPathUnits="userSpaceOnUse"
       id="clipPath196">
      <path
         d="m 9498.89,6533.98 c -77.86,0 -155.48,31.31 -212.38,93.09 -54.01,58.64 -79.14,133.6 -76.11,207.42 3.04,73.81 34.23,146.47 92.85,200.47 55.48,51.1 125.58,76.34 195.49,76.34 77.87,0 155.49,-31.31 212.4,-93.1 54.01,-58.63 79.13,-133.6 76.1,-207.41 -3.03,-73.81 -34.22,-146.47 -92.86,-200.47 -55.47,-51.09 -125.58,-76.34 -195.49,-76.34"
         id="path194" />
    </clipPath>
    <linearGradient
       x1="0"
       y1="0"
       x2="1"
       y2="0"
       gradientUnits="userSpaceOnUse"
       gradientTransform="matrix(577.327,0,0,-577.327,9210.16,6822.64)"
       spreadMethod="pad"
       id="linearGradient202">
      <stop
         style="stop-opacity:1;stop-color:#33897c"
         offset="0"
         id="stop198" />
      <stop
         style="stop-opacity:1;stop-color:#254954"
         offset="1"
         id="stop200" />
    </linearGradient>
    <clipPath
       clipPathUnits="userSpaceOnUse"
       id="clipPath212">
      <path
         d="m 8198.32,3367 c 3.03,73.82 34.22,146.47 92.85,200.47 117.26,108.01 299.87,100.51 407.88,-16.75 54.01,-58.64 79.13,-133.6 76.1,-207.41 -3.03,-73.82 -34.22,-146.47 -92.86,-200.48 -117.25,-108.01 -299.87,-100.51 -407.88,16.75 -54,58.64 -79.13,133.6 -76.09,207.42 z"
         id="path210" />
    </clipPath>
    <linearGradient
       x1="0"
       y1="0"
       x2="1"
       y2="0"
       gradientUnits="userSpaceOnUse"
       gradientTransform="matrix(577.324,0,0,-577.324,8198.07,3355.15)"
       spreadMethod="pad"
       id="linearGradient218">
      <stop
         style="stop-opacity:1;stop-color:#5ec9bd"
         offset="0"
         id="stop214" />
      <stop
         style="stop-opacity:1;stop-color:#3d8598"
         offset="1"
         id="stop216" />
    </linearGradient>
    <clipPath
       clipPathUnits="userSpaceOnUse"
       id="clipPath228">
      <path
         d="m 4893.17,2291.71 c -77.86,0 -155.49,31.31 -212.4,93.1 -54,58.63 -79.13,133.6 -76.09,207.41 3.02,73.81 34.21,146.47 92.84,200.47 55.48,51.1 125.59,76.35 195.5,76.35 77.86,0 155.48,-31.32 212.39,-93.1 54,-58.64 79.13,-133.6 76.09,-207.42 -3.03,-73.81 -34.22,-146.46 -92.85,-200.47 -55.47,-51.1 -125.57,-76.34 -195.48,-76.34"
         id="path226" />
    </clipPath>
    <linearGradient
       x1="0"
       y1="0"
       x2="1"
       y2="0"
       gradientUnits="userSpaceOnUse"
       gradientTransform="matrix(577.324,0,0,-577.324,4604.43,2580.37)"
       spreadMethod="pad"
       id="linearGradient234">
      <stop
         style="stop-opacity:1;stop-color:#33897c"
         offset="0"
         id="stop230" />
      <stop
         style="stop-opacity:1;stop-color:#254954"
         offset="1"
         id="stop232" />
    </linearGradient>
  </defs>
  <sodipodi:namedview
     id="namedview4"
     pagecolor="#ffffff"
     bordercolor="#000000"
     borderopacity="0.25"
     inkscape:showpageshadow="2"
     inkscape:pageopacity="0.0"
     inkscape:pagecheckerboard="0"
     inkscape:deskcolor="#d1d1d1" />
  <g
     id="g8"
     inkscape:groupmode="layer"
     inkscape:label="ink_ext_XXXXXX"
     transform="matrix(1.3333333,0,0,-1.3333333,0,1600)">
    <g
       id="g10"
       transform="scale(0.1)">
      <path
         d="M 0,0 H 12000 V 12000 H 0 Z"
         style="fill:#111112;fill-opacity:1;fill-rule:nonzero;stroke:none"
         id="path12" />
      <g
         id="g14">
        <g
           id="g16"
           clip-path="url(#clipPath20)">
          <path
             d="m 2713.5,5372.78 c 54,-58.63 79.13,-133.6 76.09,-207.41 -3.03,-73.82 -34.22,-146.47 -92.85,-200.47 -117.26,-108.01 -299.87,-100.51 -407.88,16.75 -54.01,58.63 -79.13,133.6 -76.1,207.41 3.03,73.82 34.22,146.47 92.86,200.48 117.25,108 299.87,100.5 407.88,-16.76"
             style="fill:url(#linearGradient26);fill-opacity:1;fill-rule:nonzero;stroke:none"
             id="path28" />
        </g>
      </g>
      <g
         id="g30">
        <g
           id="g32"
           clip-path="url(#clipPath36)">
          <path
             d="m 6761.13,7195.87 c -0.7,-7.46 -1.68,-14.89 -1.98,-22.37 -2.68,-64.95 9.87,-130.42 37.34,-190.91 l -893.18,-822.67 -893.19,-822.69 c -64.72,36.06 -137.15,53.6 -209.64,52.72 l -962.76,2808.08 c 40.76,21.8 79.28,48.35 114.17,80.49 34.91,32.15 64.54,68.4 89.62,107.24 L 6761.13,7195.87"
             style="fill:url(#linearGradient42);fill-opacity:1;fill-rule:nonzero;stroke:none"
             id="path44" />
        </g>
      </g>
      <g
         id="g46">
        <g
           id="g48"
           clip-path="url(#clipPath52)">
          <path
             d="m 3023.26,5003.91 1373.92,-126.42 c 16.03,-70.41 49.82,-135.87 100.08,-190.43 52.86,-57.41 118.27,-96.23 188.13,-117.07 l 28.66,-1099.45 12.44,-477.42 c -40.03,-16.11 -78.16,-38.29 -113.17,-66.61 l -1719.2,1866.5 c 59.2,60.41 103.13,132.15 129.14,210.9"
             style="fill:url(#linearGradient58);fill-opacity:1;fill-rule:nonzero;stroke:none"
             id="path60" />
        </g>
      </g>
      <g
         id="g62">
        <g
           id="g64"
           clip-path="url(#clipPath68)">
          <path
             d="M 4421.06,5137.97 3044.5,5264.63 c -16.83,105.94 -64.3,204.65 -138.63,285.35 -70.87,76.94 -160.24,130.44 -258.72,157.36 l 796.37,2442.71 c 36.63,-9.24 74.4,-15 113.03,-16.58 2.32,-0.1 4.62,-0.13 6.92,-0.13 6.61,0 13.17,0.29 19.77,0.33 l 969.59,-2827.99 c -10.7,-8.11 -21.16,-16.7 -31.23,-25.98 -43.84,-40.35 -77.55,-88.65 -100.54,-141.73"
             style="fill:url(#linearGradient74);fill-opacity:1;fill-rule:nonzero;stroke:none"
             id="path76" />
        </g>
      </g>
      <g
         id="g78">
        <g
           id="g80"
           clip-path="url(#clipPath84)">
          <path
             d="m 5222.25,4926.53 c 7.87,73.79 -3.55,149.3 -34.91,218.33 l 1786.4,1645.38 c 66.21,-36.88 140.5,-54.44 214.66,-52.65 L 8222.07,3837.02 c -38.48,-21.22 -74.95,-46.64 -108.1,-77.17 -33.14,-30.53 -61.45,-64.78 -85.76,-101.37 L 5222.25,4926.53"
             style="fill:url(#linearGradient90);fill-opacity:1;fill-rule:nonzero;stroke:none"
             id="path92" />
        </g>
      </g>
      <g
         id="g94">
        <g
           id="g96"
           clip-path="url(#clipPath100)">
          <path
             d="m 6702.21,9046.72 c 81.78,-88.79 188.13,-146.43 304.82,-167.75 l 1.1,-47.25 29.86,-1280.21 c -51.95,-18.32 -101.11,-47.14 -144.12,-86.75 -10.08,-9.28 -19.49,-18.99 -28.45,-28.98 l -932.28,407.86 -1806.66,790.42 c 0.8,8.86 2.04,17.62 2.4,26.57 1.54,37.41 -0.75,74.37 -6.53,110.52 l 2440.76,564.06 c 16.37,-107.12 64.04,-206.99 139.1,-288.49"
             style="fill:url(#linearGradient106);fill-opacity:1;fill-rule:nonzero;stroke:none"
             id="path108" />
        </g>
      </g>
      <g
         id="g110">
        <g
           id="g112"
           clip-path="url(#clipPath116)">
          <path
             d="m 9004.77,7064.46 -1415.93,173.27 c -14.41,73.36 -48.08,143.81 -102.34,202.68 -52.57,57.09 -117.57,95.8 -186.99,116.71 l -30.76,1318.98 -0.41,17.77 c 77.66,23.79 149.82,64.27 211.33,120.92 l 0.59,0.6 1646.43,-1787.52 -0.64,-0.53 C 9074.99,7180.3 9034.42,7125 9004.77,7064.46"
             style="fill:url(#linearGradient122);fill-opacity:1;fill-rule:nonzero;stroke:none"
             id="path124" />
        </g>
      </g>
      <g
         id="g126">
        <g
           id="g128"
           clip-path="url(#clipPath132)">
          <path
             d="m 8509.32,3904.9 c -11.3,0.46 -22.47,-0.04 -33.69,-0.26 L 7434.87,6825.09 c 9.29,7.21 18.49,14.58 27.29,22.69 41.2,37.95 72.86,82.4 95.26,130.27 l 1391.94,-170.34 c 3.44,-133.08 53.73,-259 144.76,-357.83 68.42,-74.28 154.12,-126.57 248.56,-154.37 L 8612.27,3890.79 c -33.48,7.77 -67.87,12.67 -102.95,14.11"
             style="fill:url(#linearGradient138);fill-opacity:1;fill-rule:nonzero;stroke:none"
             id="path140" />
        </g>
      </g>
      <g
         id="g142">
        <g
           id="g144"
           clip-path="url(#clipPath148)">
          <path
             d="m 5325.44,2688.26 c -17.78,71.66 -53.18,138.18 -104.6,194 -64.54,70.06 -146.57,114.38 -233.29,133.08 l -40.67,1560.92 c 51.56,18.34 100.34,47.09 143.06,86.46 8.8,8.1 16.91,16.68 24.86,25.35 L 7940.01,3411.32 c -1.13,-11.17 -2.56,-22.27 -3.02,-33.59 -1.49,-36.31 0.59,-72.23 6,-107.37 l -2617.55,-582.1"
             style="fill:url(#linearGradient154);fill-opacity:1;fill-rule:nonzero;stroke:none"
             id="path156" />
        </g>
      </g>
      <g
         id="g158">
        <g
           id="g160"
           clip-path="url(#clipPath164)">
          <path
             d="m 3579.21,8394.55 c -77.86,0 -155.48,31.31 -212.39,93.1 -54.01,58.63 -79.13,133.6 -76.1,207.41 3.03,73.82 34.22,146.47 92.85,200.48 55.47,51.09 125.58,76.34 195.49,76.34 77.86,0 155.48,-31.31 212.39,-93.1 54.01,-58.63 79.13,-133.6 76.1,-207.41 -3.03,-73.81 -34.22,-146.47 -92.85,-200.48 -55.48,-51.09 -125.58,-76.34 -195.49,-76.34"
             style="fill:url(#linearGradient170);fill-opacity:1;fill-rule:nonzero;stroke:none"
             id="path172" />
        </g>
      </g>
      <g
         id="g174">
        <g
           id="g176"
           clip-path="url(#clipPath180)">
          <path
             d="m 7302.47,9207.16 c -117.26,-108 -299.87,-100.5 -407.88,16.76 -54,58.63 -79.13,133.6 -76.09,207.41 3.02,73.82 34.21,146.47 92.84,200.47 117.26,108.01 299.88,100.51 407.89,-16.75 54,-58.63 79.13,-133.6 76.09,-207.41 -3.03,-73.82 -34.22,-146.47 -92.85,-200.48"
             style="fill:url(#linearGradient186);fill-opacity:1;fill-rule:nonzero;stroke:none"
             id="path188" />
        </g>
      </g>
      <g
         id="g190">
        <g
           id="g192"
           clip-path="url(#clipPath196)">
          <path
             d="m 9498.89,6533.98 c -77.86,0 -155.48,31.31 -212.38,93.09 -54.01,58.64 -79.14,133.6 -76.11,207.42 3.04,73.81 34.23,146.47 92.85,200.47 55.48,51.1 125.58,76.34 195.49,76.34 77.87,0 155.49,-31.31 212.4,-93.1 54.01,-58.63 79.13,-133.6 76.1,-207.41 -3.03,-73.81 -34.22,-146.47 -92.86,-200.47 -55.47,-51.09 -125.58,-76.34 -195.49,-76.34"
             style="fill:url(#linearGradient202);fill-opacity:1;fill-rule:nonzero;stroke:none"
             id="path204" />
        </g>
      </g>
      <g
         id="g206">
        <g
           id="g208"
           clip-path="url(#clipPath212)">
          <path
             d="m 8198.32,3367 c 3.03,73.82 34.22,146.47 92.85,200.47 117.26,108.01 299.87,100.51 407.88,-16.75 54.01,-58.64 79.13,-133.6 76.1,-207.41 -3.03,-73.82 -34.22,-146.47 -92.86,-200.48 -117.25,-108.01 -299.87,-100.51 -407.88,16.75 -54,58.64 -79.13,133.6 -76.09,207.42"
             style="fill:url(#linearGradient218);fill-opacity:1;fill-rule:nonzero;stroke:none"
             id="path220" />
        </g>
      </g>
      <g
         id="g222">
        <g
           id="g224"
           clip-path="url(#clipPath228)">
          <path
             d="m 4893.17,2291.71 c -77.86,0 -155.49,31.31 -212.4,93.1 -54,58.63 -79.13,133.6 -76.09,207.41 3.02,73.81 34.21,146.47 92.84,200.47 55.48,51.1 125.59,76.35 195.5,76.35 77.86,0 155.48,-31.32 212.39,-93.1 54,-58.64 79.13,-133.6 76.09,-207.42 -3.03,-73.81 -34.22,-146.46 -92.85,-200.47 -55.47,-51.1 -125.57,-76.34 -195.48,-76.34"
             style="fill:url(#linearGradient234);fill-opacity:1;fill-rule:nonzero;stroke:none"
             id="path236" />
        </g>
      </g>
    </g>
  </g>
</svg>
